# xmcd
#
# Track frame offsets:
#	151
#	13257
#	27109
#	41562
#	55991
#	70960
#	84073
#	100181
#	112858
#	124969
#	139817
#	156865
#	169316
#	183267
#	198036
#	210772
#	224710
#	240096
#	255728
#	270444
#
# Disc length: 3773 seconds
#
# Revision: 0
# Processed by: cddbd v1.5.1PL0 Copyright (c) Steve Scherf et al.
# Submitted via: dBpowerAMP V4.0
#
DISCID=0b0ebb14
DTITLE=Various Artist - The Legend
DYEAR=2001
DGENRE=Blues
TTITLE0=Give Me A Break Blues
TTITLE1=Moaning Blues
TTITLE2=Jenny's Ball
TTITLE3=Nothing But The Blues
TTITLE4=Barrel House Blues
TTITLE5=Kansas City Blues
TTITLE6=Be On Your Merry Way
TTITLE7=Midnight Mama
TTITLE8=Blue Yodel No.9 (Standin' On The Corner)
TTITLE9=Trombone Cholly
TTITLE10=Organ Grinder
TTITLE11=Get Up Off Your Knees
TTITLE12=Weepin' Woman Blues
TTITLE13=I've Got What It Takes
TTITLE14=That Thing's Done Been Put On Me
TTITLE15=He Used To Be Your Man But He's My Man Now
TTITLE16=Shipwrecked Blues
TTITLE17=Special Delivery Blues
TTITLE18=Screamin' The Blues
TTITLE19=Blind Lemon's Penitentiary Blues
EXTD=
EXTT0=
EXTT1=
EXTT2=
EXTT3=
EXTT4=
EXTT5=
EXTT6=
EXTT7=
EXTT8=
EXTT9=
EXTT10=
EXTT11=
EXTT12=
EXTT13=
EXTT14=
EXTT15=
EXTT16=
EXTT17=
EXTT18=
EXTT19=
PLAYORDER=
